{
    "asset" : {
        "generator" : "Khronos glTF Blender I/O v1.6.16",
        "version" : "2.0"
    },
    "scene" : 0,
    "scenes" : [
        {
            "name" : "Scene",
            "nodes" : [
                0
            ]
        }
    ],
    "nodes" : [
        {
            "mesh" : 0,
            "name" : "Plane",
            "rotation" : [
                0.7071068286895752,
                0,
                0,
                0.7071068286895752
            ],
            "translation" : [
                0,
                1,
                0
            ]
        }
    ],
    "meshes" : [
        {
            "name" : "Plane",
            "primitives" : [
                {
                    "attributes" : {
                        "POSITION" : 0,
                        "NORMAL" : 1,
                        "TEXCOORD_0" : 2
                    },
                    "indices" : 3
                }
            ]
        }
    ],
    "accessors" : [
        {
            "bufferView" : 0,
            "componentType" : 5126,
            "count" : 1440,
            "max" : [
                12.137001037597656,
                6.588709311472485e-08,
                1.0000001192092896
            ],
            "min" : [
                -1,
                -0.09704422205686569,
                -4.184323787689209
            ],
            "type" : "VEC3"
        },
        {
            "bufferView" : 1,
            "componentType" : 5126,
            "count" : 1440,
            "type" : "VEC3"
        },
        {
            "bufferView" : 2,
            "componentType" : 5126,
            "count" : 1440,
            "type" : "VEC2"
        },
        {
            "bufferView" : 3,
            "componentType" : 5123,
            "count" : 2160,
            "type" : "SCALAR"
        }
    ],
    "bufferViews" : [
        {
            "buffer" : 0,
            "byteLength" : 17280,
            "byteOffset" : 0
        },
        {
            "buffer" : 0,
            "byteLength" : 17280,
            "byteOffset" : 17280
        },
        {
            "buffer" : 0,
            "byteLength" : 11520,
            "byteOffset" : 34560
        },
        {
            "buffer" : 0,
            "byteLength" : 4320,
            "byteOffset" : 46080
        }
    ],
    "buffers" : [
        {
            "byteLength" : 50400,
            "uri" : "data:application/octet-stream;base64,"
        }
    ]
}
