{
  "accessors": [
    {
      "bufferView": 2,
      "componentType": 5126,
      "count": 14647,
      "max": [
        15.43690013885498,
        15.15060043334961,
        13.787200927734375
      ],
      "min": [
        -14.282400131225586,
        -15.305299758911133,
        5.790901184082031
      ],
      "type": "VEC3"
    },
    {
      "bufferView": 2,
      "byteOffset": 175764,
      "componentType": 5126,
      "count": 14647,
      "max": [
        0.9998283386230469,
        0.9999567866325378,
        0.9999785423278809
      ],
      "min": [
        -0.9998727440834045,
        -0.9999933838844299,
        -0.9999777674674988
      ],
      "type": "VEC3"
    },
    {
      "bufferView": 1,
      "componentType": 5126,
      "count": 14647,
      "max": [
        0.9994999766349792,
        0.9896000027656555
      ],
      "min": [
        0.10429999977350235,
        0.0005000000237487257
      ],
      "type": "VEC2"
    },
    {
      "bufferView": 0,
      "componentType": 5125,
      "count": 51756,
      "type": "SCALAR"
    },
    {
      "bufferView": 2,
      "byteOffset": 351528,
      "componentType": 5126,
      "count": 16043,
      "max": [
        20.10059928894043,
        19.848499298095703,
        8.077499389648438
      ],
      "min": [
        -19.566699981689453,
        -19.754499435424805,
        -0.021702000871300697
      ],
      "type": "VEC3"
    },
    {
      "bufferView": 2,
      "byteOffset": 544044,
      "componentType": 5126,
      "count": 16043,
      "max": [
        0.9993003606796265,
        0.9999334812164307,
        0.9999752640724182
      ],
      "min": [
        -0.9998976588249207,
        -0.9997453689575195,
        -0.9999914765357971
      ],
      "type": "VEC3"
    },
    {
      "bufferView": 1,
      "byteOffset": 117176,
      "componentType": 5126,
      "count": 16043,
      "max": [
        0.9990000128746033,
        0.9900000095367432
      ],
      "min": [
        0.03020000085234642,
        0.0005000000237487257
      ],
      "type": "VEC2"
    },
    {
      "bufferView": 0,
      "byteOffset": 207024,
      "componentType": 5125,
      "count": 55689,
      "type": "SCALAR"
    },
    {
      "bufferView": 2,
      "byteOffset": 736560,
      "componentType": 5126,
      "count": 9391,
      "max": [
        17.55739974975586,
        17.556400299072266,
        14.17140007019043
      ],
      "min": [
        -24.285600662231445,
        -17.660900115966797,
        -0.4445990025997162
      ],
      "type": "VEC3"
    },
    {
      "bufferView": 2,
      "byteOffset": 849252,
      "componentType": 5126,
      "count": 9391,
      "max": [
        0.9999906420707703,
        0.9999648928642273,
        0.9999962449073792
      ],
      "min": [
        -0.9998521208763123,
        -0.9998977780342102,
        -0.999967098236084
      ],
      "type": "VEC3"
    },
    {
      "bufferView": 1,
      "byteOffset": 245520,
      "componentType": 5126,
      "count": 9391,
      "max": [
        0.9866999983787537,
        0.9902999997138977
      ],
      "min": [
        0.0005000000237487257,
        0.00419999985024333
      ],
      "type": "VEC2"
    },
    {
      "bufferView": 0,
      "byteOffset": 429780,
      "componentType": 5125,
      "count": 34566,
      "type": "SCALAR"
    },
    {
      "bufferView": 2,
      "byteOffset": 961944,
      "componentType": 5126,
      "count": 8158,
      "max": [
        34.27180099487305,
        35.052894592285156,
        9.710599899291992
      ],
      "min": [
        -24.28660011291504,
        -8.795499801635742,
        -0.4445990025997162
      ],
      "type": "VEC3"
    },
    {
      "bufferView": 2,
      "byteOffset": 1059840,
      "componentType": 5126,
      "count": 8158,
      "max": [
        1.0,
        1.0,
        1.0
      ],
      "min": [
        -1.0,
        -1.0,
        -1.0
      ],
      "type": "VEC3"
    },
    {
      "bufferView": 1,
      "byteOffset": 320648,
      "componentType": 5126,
      "count": 8158,
      "max": [
        0.9940000176429749,
        0.9902999997138977
      ],
      "min": [
        0.0005000000237487257,
        0.0005000000237487257
      ],
      "type": "VEC2"
    },
    {
      "bufferView": 0,
      "byteOffset": 568044,
      "componentType": 5125,
      "count": 25434,
      "type": "SCALAR"
    },
    {
      "bufferView": 2,
      "byteOffset": 1157736,
      "componentType": 5126,
      "count": 4930,
      "max": [
        -9.518500328063965,
        6.641900062561035,
        24.333099365234375
      ],
      "min": [
        -15.552300453186035,
        -6.542200088500977,
        7.429399013519287
      ],
      "type": "VEC3"
    },
    {
      "bufferView": 2,
      "byteOffset": 1216896,
      "componentType": 5126,
      "count": 4930,
      "max": [
        1.9000002794200554e-05,
        0.9977844953536987,
        0.999917209148407
      ],
      "min": [
        -0.9959103465080261,
        -0.9977627396583557,
        -0.9988011121749878
      ],
      "type": "VEC3"
    },
    {
      "bufferView": 1,
      "byteOffset": 385912,
      "componentType": 5126,
      "count": 4930,
      "max": [
        0.9965999722480774,
        0.9904999732971191
      ],
      "min": [
        0.048700001090765,
        0.0005000000237487257
      ],
      "type": "VEC2"
    },
    {
      "bufferView": 0,
      "byteOffset": 669780,
      "componentType": 5125,
      "count": 17850,
      "type": "SCALAR"
    },
    {
      "bufferView": 2,
      "byteOffset": 1276056,
      "componentType": 5126,
      "count": 14439,
      "max": [
        32.50339889526367,
        36.295501708984375,
        26.15920066833496
      ],
      "min": [
        17.905000686645508,
        15.930000305175781,
        19.536500930786133
      ],
      "type": "VEC3"
    },
    {
      "bufferView": 2,
      "byteOffset": 1449324,
      "componentType": 5126,
      "count": 14439,
      "max": [
        0.9999903440475464,
        0.9988863468170166,
        0.9999926686286926
      ],
      "min": [
        -0.9999907612800598,
        -0.998847246170044,
        -1.0
      ],
      "type": "VEC3"
    },
    {
      "bufferView": 1,
      "byteOffset": 425352,
      "componentType": 5126,
      "count": 14439,
      "max": [
        0.9959999918937683,
        0.989300012588501
      ],
      "min": [
        0.0005000000237487257,
        0.0005000000237487257
      ],
      "type": "VEC2"
    },
    {
      "bufferView": 0,
      "byteOffset": 741180,
      "componentType": 5125,
      "count": 52008,
      "type": "SCALAR"
    },
    {
      "bufferView": 2,
      "byteOffset": 1622592,
      "componentType": 5126,
      "count": 4001,
      "max": [
        15.701700210571289,
        15.798600196838379,
        30.9060001373291
      ],
      "min": [
        -15.701700210571289,
        -15.701700210571289,
        16.75860023498535
      ],
      "type": "VEC3"
    },
    {
      "bufferView": 2,
      "byteOffset": 1670604,
      "componentType": 5126,
      "count": 4001,
      "max": [
        0.999999463558197,
        1.0,
        1.0
      ],
      "min": [
        -1.0,
        -1.0,
        -1.0
      ],
      "type": "VEC3"
    },
    {
      "bufferView": 1,
      "byteOffset": 540864,
      "componentType": 5126,
      "count": 4001,
      "max": [
        0.9944000244140625,
        0.9889000058174133
      ],
      "min": [
        0.03759999945759773,
        0.015300000086426735
      ],
      "type": "VEC2"
    },
    {
      "bufferView": 0,
      "byteOffset": 949212,
      "componentType": 5125,
      "count": 13200,
      "type": "SCALAR"
    },
    {
      "bufferView": 2,
      "byteOffset": 1718616,
      "componentType": 5126,
      "count": 9520,
      "max": [
        27.15530014038086,
        34.81299591064453,
        70.91290283203125
      ],
      "min": [
        -20.246400833129883,
        -29.8612003326416,
        -0.06449899822473526
      ],
      "type": "VEC3"
    },
    {
      "bufferView": 2,
      "byteOffset": 1832856,
      "componentType": 5126,
      "count": 9520,
      "max": [
        1.0,
        0.9997636079788208,
        1.0
      ],
      "min": [
        -1.0,
        -0.9997450113296509,
        -1.0
      ],
      "type": "VEC3"
    },
    {
      "bufferView": 1,
      "byteOffset": 572872,
      "componentType": 5126,
      "count": 9520,
      "max": [
        0.989799976348877,
        0.9991999864578247
      ],
      "min": [
        0.0005000000237487257,
        0.018300000578165054
      ],
      "type": "VEC2"
    },
    {
      "bufferView": 0,
      "byteOffset": 1002012,
      "componentType": 5125,
      "count": 34164,
      "type": "SCALAR"
    },
    {
      "bufferView": 2,
      "byteOffset": 1947096,
      "componentType": 5126,
      "count": 9956,
      "max": [
        37.5,
        37.5,
        26.814599990844727
      ],
      "min": [
        -37.5,
        -37.5,
        -3.0149989128112793
      ],
      "type": "VEC3"
    },
    {
      "bufferView": 2,
      "byteOffset": 2066568,
      "componentType": 5126,
      "count": 9956,
      "max": [
        1.0,
        1.0,
        1.0
      ],
      "min": [
        -1.0,
        -1.0,
        -1.0
      ],
      "type": "VEC3"
    },
    {
      "bufferView": 1,
      "byteOffset": 649032,
      "componentType": 5126,
      "count": 9956,
      "max": [
        0.9980999827384949,
        0.9994999766349792
      ],
      "min": [
        0.0005000000237487257,
        0.0005000000237487257
      ],
      "type": "VEC2"
    },
    {
      "bufferView": 0,
      "byteOffset": 1138668,
      "componentType": 5125,
      "count": 34842,
      "type": "SCALAR"
    },
    {
      "bufferView": 2,
      "byteOffset": 2186040,
      "componentType": 5126,
      "count": 6760,
      "max": [
        30.888099670410156,
        38.22889709472656,
        53.95759963989258
      ],
      "min": [
        -33.985801696777344,
        -34.690101623535156,
        -0.9836009740829468
      ],
      "type": "VEC3"
    },
    {
      "bufferView": 2,
      "byteOffset": 2267160,
      "componentType": 5126,
      "count": 6760,
      "max": [
        0.9987040162086487,
        1.0,
        1.0
      ],
      "min": [
        -0.9998649954795837,
        -1.0,
        -1.0
      ],
      "type": "VEC3"
    },
    {
      "bufferView": 1,
      "byteOffset": 728680,
      "componentType": 5126,
      "count": 6760,
      "max": [
        0.9901000261306763,
        0.9994000196456909
      ],
      "min": [
        0.0005000000237487257,
        0.04490000009536743
      ],
      "type": "VEC2"
    },
    {
      "bufferView": 0,
      "byteOffset": 1278036,
      "componentType": 5125,
      "count": 25689,
      "type": "SCALAR"
    },
    {
      "bufferView": 2,
      "byteOffset": 2348280,
      "componentType": 5126,
      "count": 4982,
      "max": [
        31.034400939941406,
        31.936899185180664,
        43.14910125732422
      ],
      "min": [
        -28.333599090576172,
        -28.333599090576172,
        2.6317999362945557
      ],
      "type": "VEC3"
    },
    {
      "bufferView": 2,
      "byteOffset": 2408064,
      "componentType": 5126,
      "count": 4982,
      "max": [
        1.0,
        1.0,
        1.0
      ],
      "min": [
        -1.0,
        -1.0,
        -1.0
      ],
      "type": "VEC3"
    },
    {
      "bufferView": 1,
      "byteOffset": 782760,
      "componentType": 5126,
      "count": 4982,
      "max": [
        0.9872000217437744,
        0.9995999932289124
      ],
      "min": [
        0.00019999999494757503,
        0.018300000578165054
      ],
      "type": "VEC2"
    },
    {
      "bufferView": 0,
      "byteOffset": 1380792,
      "componentType": 5125,
      "count": 17778,
      "type": "SCALAR"
    }
  ],
  "asset": {
    "extras": {
      "author": "atalik_ST (https://sketchfab.com/atalik_ST)",
      "license": "CC-BY-4.0 (http://creativecommons.org/licenses/by/4.0/)",
      "source": "https://sketchfab.com/3d-models/mini-tower-9fa1a8055f2f4c6baa0740c03660136b",
      "title": "Mini tower"
    },
    "generator": "Sketchfab-12.65.0",
    "version": "2.0"
  },
  "bufferViews": [
    {
      "buffer": 0,
      "byteLength": 1451904,
      "name": "floatBufferViews",
      "target": 34963
    },
    {
      "buffer": 0,
      "byteLength": 822616,
      "byteOffset": 1451904,
      "byteStride": 8,
      "name": "floatBufferViews",
      "target": 34962
    },
    {
      "buffer": 0,
      "byteLength": 2467848,
      "byteOffset": 2274520,
      "byteStride": 12,
      "name": "floatBufferViews",
      "target": 34962
    }
  ],
  "buffers": [
    {
      "byteLength": 4742368,
      "uri": "scene.bin"
    }
  ],
  "images": [
    {
      "uri": "textures/Kirpich_2_baseColor.png"
    },
    {
      "uri": "textures/Osnova_baseColor.png"
    },
    {
      "uri": "textures/Osnova_emissive.png"
    }
  ],
  "materials": [
    {
      "doubleSided": true,
      "emissiveFactor": [
        1.0,
        1.0,
        1.0
      ],
      "emissiveTexture": {
        "index": 0
      },
      "name": "Kirpich_2",
      "pbrMetallicRoughness": {
        "baseColorTexture": {
          "index": 0
        },
        "metallicFactor": 0.0,
        "roughnessFactor": 0.6
      }
    },
    {
      "doubleSided": true,
      "emissiveFactor": [
        0.504954268292683,
        0.504954268292683,
        0.504954268292683
      ],
      "emissiveTexture": {
        "index": 2
      },
      "name": "Osnova",
      "pbrMetallicRoughness": {
        "baseColorTexture": {
          "index": 1
        },
        "metallicFactor": 0.0,
        "roughnessFactor": 0.6
      }
    }
  ],
  "meshes": [
    {
      "name": "Object_0",
      "primitives": [
        {
          "attributes": {
            "NORMAL": 1,
            "POSITION": 0,
            "TEXCOORD_0": 2
          },
          "indices": 3,
          "material": 0,
          "mode": 4
        }
      ]
    },
    {
      "name": "Object_1",
      "primitives": [
        {
          "attributes": {
            "NORMAL": 5,
            "POSITION": 4,
            "TEXCOORD_0": 6
          },
          "indices": 7,
          "material": 0,
          "mode": 4
        }
      ]
    },
    {
      "name": "Object_2",
      "primitives": [
        {
          "attributes": {
            "NORMAL": 9,
            "POSITION": 8,
            "TEXCOORD_0": 10
          },
          "indices": 11,
          "material": 0,
          "mode": 4
        }
      ]
    },
    {
      "name": "Object_3",
      "primitives": [
        {
          "attributes": {
            "NORMAL": 13,
            "POSITION": 12,
            "TEXCOORD_0": 14
          },
          "indices": 15,
          "material": 0,
          "mode": 4
        }
      ]
    },
    {
      "name": "Object_4",
      "primitives": [
        {
          "attributes": {
            "NORMAL": 17,
            "POSITION": 16,
            "TEXCOORD_0": 18
          },
          "indices": 19,
          "material": 0,
          "mode": 4
        }
      ]
    },
    {
      "name": "Object_5",
      "primitives": [
        {
          "attributes": {
            "NORMAL": 21,
            "POSITION": 20,
            "TEXCOORD_0": 22
          },
          "indices": 23,
          "material": 0,
          "mode": 4
        }
      ]
    },
    {
      "name": "Object_6",
      "primitives": [
        {
          "attributes": {
            "NORMAL": 25,
            "POSITION": 24,
            "TEXCOORD_0": 26
          },
          "indices": 27,
          "material": 0,
          "mode": 4
        }
      ]
    },
    {
      "name": "Object_7",
      "primitives": [
        {
          "attributes": {
            "NORMAL": 29,
            "POSITION": 28,
            "TEXCOORD_0": 30
          },
          "indices": 31,
          "material": 1,
          "mode": 4
        }
      ]
    },
    {
      "name": "Object_8",
      "primitives": [
        {
          "attributes": {
            "NORMAL": 33,
            "POSITION": 32,
            "TEXCOORD_0": 34
          },
          "indices": 35,
          "material": 1,
          "mode": 4
        }
      ]
    },
    {
      "name": "Object_9",
      "primitives": [
        {
          "attributes": {
            "NORMAL": 37,
            "POSITION": 36,
            "TEXCOORD_0": 38
          },
          "indices": 39,
          "material": 1,
          "mode": 4
        }
      ]
    },
    {
      "name": "Object_10",
      "primitives": [
        {
          "attributes": {
            "NORMAL": 41,
            "POSITION": 40,
            "TEXCOORD_0": 42
          },
          "indices": 43,
          "material": 1,
          "mode": 4
        }
      ]
    }
  ],
  "nodes": [
    {
      "children": [
        1
      ],
      "matrix": [
        0.13770480453968048,
        0.0,
        0.0,
        0.0,
        0.0,
        3.057660892029201e-17,
        -0.13770480453968048,
        0.0,
        0.0,
        0.13770480453968048,
        3.057660892029201e-17,
        0.0,
        0.0,
        0.0,
        0.0,
        1.0
      ],
      "name": "Sketchfab_model"
    },
    {
      "children": [
        2,
        3,
        4,
        5,
        6,
        7,
        8,
        9,
        10,
        11,
        12
      ],
      "name": "1.obj.cleaner.materialmerger.gles"
    },
    {
      "mesh": 0,
      "name": "Object_2"
    },
    {
      "mesh": 1,
      "name": "Object_3"
    },
    {
      "mesh": 2,
      "name": "Object_4"
    },
    {
      "mesh": 3,
      "name": "Object_5"
    },
    {
      "mesh": 4,
      "name": "Object_6"
    },
    {
      "mesh": 5,
      "name": "Object_7"
    },
    {
      "mesh": 6,
      "name": "Object_8"
    },
    {
      "mesh": 7,
      "name": "Object_9"
    },
    {
      "mesh": 8,
      "name": "Object_10"
    },
    {
      "mesh": 9,
      "name": "Object_11"
    },
    {
      "mesh": 10,
      "name": "Object_12"
    }
  ],
  "samplers": [
    {
      "magFilter": 9729,
      "minFilter": 9987,
      "wrapS": 10497,
      "wrapT": 10497
    }
  ],
  "scene": 0,
  "scenes": [
    {
      "name": "Sketchfab_Scene",
      "nodes": [
        0
      ]
    }
  ],
  "textures": [
    {
      "sampler": 0,
      "source": 0
    },
    {
      "sampler": 0,
      "source": 1
    },
    {
      "sampler": 0,
      "source": 2
    }
  ]
}
